<?xml version="1.0" standalone="no"?>
<!DOCTYPE svg PUBLIC "-//W3C//DTD SVG 20010904//EN"
 "http://www.w3.org/TR/2001/REC-SVG-20010904/DTD/svg10.dtd">
<svg version="1.0" xmlns="http://www.w3.org/2000/svg"
 width="700.000000pt" height="700.000000pt" viewBox="0 0 700.000000 700.000000"
 preserveAspectRatio="xMidYMid meet">
<metadata>
Created by potrace 1.14, written by Peter Selinger 2001-2017
</metadata>
<g transform="translate(0.000000,700.000000) scale(0.100000,-0.100000)"
fill="#000000" stroke="none">
<path d="M3278 6995 c-1 -1 -42 -5 -89 -9 -47 -4 -95 -8 -106 -10 -11 -3 -44
-7 -74 -11 -238 -28 -547 -111 -814 -217 -215 -86 -517 -247 -676 -361 -31
-23 -67 -49 -79 -57 -171 -115 -446 -373 -626 -585 -80 -95 -264 -345 -264
-359 0 -3 -13 -24 -28 -48 -16 -24 -38 -59 -48 -78 -10 -19 -22 -37 -25 -40
-14 -11 -170 -342 -212 -450 -96 -248 -172 -540 -203 -775 -3 -27 -8 -59 -10
-70 -18 -95 -25 -588 -11 -735 7 -62 22 -177 42 -310 25 -171 120 -491 208
-706 130 -317 348 -677 555 -917 553 -639 1264 -1052 2052 -1191 47 -8 108
-18 135 -22 28 -3 52 -8 55 -9 31 -19 623 -27 775 -12 659 68 1274 309 1785
701 112 85 129 100 224 185 152 136 340 341 452 491 192 260 345 532 458 818
69 174 142 415 171 562 18 91 36 200 45 265 5 44 13 96 16 115 9 58 12 560 3
630 -4 36 -10 90 -13 120 -4 30 -8 66 -10 80 -2 14 -7 48 -11 75 -18 132 -79
377 -140 560 -308 931 -1045 1721 -1961 2103 -247 103 -577 198 -794 227 -19
3 -46 7 -60 10 -13 2 -52 7 -86 11 -33 3 -74 8 -90 10 -33 5 -540 14 -546 9z"/>
</g>
</svg>
