<?xml version="1.0" encoding="UTF-8"?>
<svg width="512px" height="512px" viewBox="0 0 512 512" version="1.1" xmlns="http://www.w3.org/2000/svg" xmlns:xlink="http://www.w3.org/1999/xlink">
    <title>Artboard</title>
    <g id="Artboard" stroke="none" stroke-width="1" fill="none" fill-rule="evenodd">
        <g id="portrait-copy">
            <g id="Group" fill-rule="nonzero">
                <ellipse id="Oval" fill="#3880FF" cx="256" cy="255.69971" rx="256" ry="255.69971"></ellipse>
                <path d="M161.320745,92.4859206 L153.747808,118.603547 C153.109622,120.561032 151.197347,138.361988 150.644942,141.340049 L147.096537,152.597162 L145.160911,164.210799 C143.990883,165.780044 143.177102,187.291295 143.654413,179.316444 L137.485183,175.636217 C137.174871,175.69109 132.738573,175.417906 131.471358,180.494793 L131.64667,185.008969 L131.04436,192.284811 L130.468362,202.59872 L131.998231,217.644703 L131.698233,227.696196 C131.396671,231.658959 134.972847,234.520931 137.262683,235.489259 C139.610207,238.021434 140.623551,238.377089 142.662357,238.327732 L147.096537,236.988999 L150.446922,235.902162 L152.92007,241.693607 L155.162438,260.405271 C155.394437,302.663597 157.725951,324.212961 162.156978,325.053362 L197.723329,348.744205 C231.422367,362.128097 254.220661,368.820048 266.11821,368.820048 C278.01576,368.820048 297.573635,358.243093 324.791837,337.0892 L339.648942,323.882822 C349.06861,311.760156 354.95609,303.463571 357.311385,298.993067 C360.844325,292.287312 363.009684,272.710227 364.341055,269.56259 C368.642523,253.132982 368.487134,253.983094 368.98878,249.70369 C370.598632,243.216533 369.030714,235.788287 368.98878,227.488299 L372.13118,191.98543 C372.195581,184.708142 368.698999,175.405162 367.54972,170.340075 C367.183809,165.146909 369.214018,162.740023 369.634547,159.18699 C369.767168,158.066468 369.973327,156.886956 370.01628,155.160489 C370.030935,154.571523 369.959421,153.21932 370.01628,152.597162 C370.064273,152.072042 370.271002,149.471491 370.01628,149.035152 L370.01628,141.340049 C370.372827,138.156166 370.566944,136.054428 370.598632,135.034836 C370.617442,134.429623 370.687343,133.870344 370.598632,133.404704 C370.351439,132.107223 370.542069,131.779323 370.598632,130.636167 C370.659903,129.397809 370.598632,127.848516 370.598632,126.135528 C370.598632,118.34814 368.364169,104.359589 363.817092,92.4859206 C360.785706,84.570142 355.854325,77.956268 349.022955,72.6443003 C347.129711,72.4038863 311.906096,49.0219124 298.645578,45.9162171 C285.675879,42.8786331 260.167466,42.8786331 222.120342,45.9162171 C202.401031,46.2414026 182.134498,61.7646372 161.320745,92.4859206 Z" id="path5582" fill="#FFDAB9"></path>
            </g>
            <g id="Group-5" transform="translate(121.600000, 21.931168)">
                <g id="Face-" opacity="0.47172619" transform="translate(117.668363, 249.870445)" fill="#3C2516" fill-rule="nonzero">
                    <path d="M6.09018943,4.76426566 C9.38775552,4.76426566 12.0314086,4.4204943 12.0314086,4.03237999 C12.0314086,3.9262886 10.4453309,2.40286854 8.71837538,1.58144827 C7.28326334,0.898841962 5.99192127,0.389243397 5.58617502,0.42462932 C3.80659102,0.579830872 0.9459584,2.24553123 0.9459584,2.87860038 C0.9459584,3.26671469 2.79262369,4.76426566 6.09018943,4.76426566 Z" id="Oval"></path>
                    <path d="M34.992061,4.76426566 C37.6301138,4.76426566 39.7450367,4.59238015 39.7450367,4.39832281 C39.7450367,4.34527731 38.476174,3.5835671 37.0946098,3.17285715 C35.9465203,2.83155394 34.9134465,2.57675453 34.5888496,2.59444764 C33.1651824,2.67204828 30.8766762,3.50489843 30.8766762,3.8214332 C30.8766762,4.0154902 32.3540084,4.76426566 34.992061,4.76426566 Z" id="Oval" transform="translate(35.310856, 3.678923) scale(-1, 1) translate(-35.310856, -3.678923) "></path>
                </g>
                <g id="Skin" transform="translate(12.193995, 77.059364)" fill-rule="nonzero">
                    <path d="M147.43649,93.0079822 C162.411427,89.4028306 176.227271,84.7149441 186.527405,80.9501052 C197.91472,84.1825358 212.320653,79.274964 221.497422,83.4938065 L230.577368,85.1672103 L228.463402,88.1468346 L189.116892,86.8025243 L153.38641,93.9742231 L147.43649,93.0079822 Z" id="path5584" fill="#000000" opacity="0.64899998"></path>
                    <path d="M130.455508,103.802824 C123.108755,125.654859 118.245326,139.774802 115.865223,146.162654 C114.270169,150.443548 110.06491,155.089151 109.33652,157.498606 C108.87405,159.028422 106.083008,160.695194 105.217775,161.521337 C104.640953,162.0721 103.855881,162.767405 102.862559,163.607252 C101.530696,164.948219 99.9711981,166.043251 97.6785335,168.88563 C95.8095765,171.202709 98.2823952,173.618471 100.790083,176.780525 C101.643398,176.843393 107.987115,174.472075 109.020491,174.716362 C110.665097,175.105141 112.281223,175.607675 113.615685,176.429857 C114.544871,177.002341 115.299923,177.754351 116.034461,178.135537 C119.604309,179.988096 126.074876,180.540733 129.0646,178.348192 C131.935531,176.242769 129.59518,150.522274 129.727473,143.584245 C130.019271,128.28112 130.261949,115.020646 130.455508,103.802824 Z" id="path5628" fill="#907B7B" opacity="0.311616443" transform="translate(113.762527, 141.787513) rotate(-3.000000) translate(-113.762527, -141.787513) "></path>
                    <polygon id="path5606" fill="#D2B48C" opacity="0.50199998" points="100.877598 78.731544 125.740644 83.1207915 153.060793 75.7337941 158.52194 74.4380463 134.001993 76.8641748 126.252733 79.4943653"></polygon>
                    <path d="M158.52194,101.751343 C172.407413,96.6669927 179.663345,94.0503061 180.289738,93.9012836 C192.525585,90.9902982 199.584116,93.5315042 206.49673,92.2429189 C213.940162,90.8553834 220.058001,90.0181372 224.850246,89.7311796 C226.634185,89.6047991 228.312871,89.6047991 229.886304,89.7311796 C231.459738,89.8575603 234.276697,89.8247838 238.337182,89.6328505 L237.775103,97.3907777 L236.185762,109.169027 L222.539378,99.2272268 C216.097969,98.3105769 211.114963,97.6984273 207.590356,97.3907777 C204.065751,97.0831275 200.925006,96.9861852 198.168123,97.0999505 C191.573241,97.5487987 186.893861,97.9042064 184.129981,98.166173 C181.366102,98.4281393 172.830088,99.6231962 158.52194,101.751343 Z" id="Path-15" fill="#D2B48C" opacity="0.315034412"></path>
                    <path d="M0.437732133,91.8035368 C2.329109,91.8486668 3.50478874,92.3839491 3.96477142,93.4093827 C4.42475407,94.4348165 5.08511361,96.3259951 5.94585006,99.0829178 C3.86767706,103.377623 2.85645745,106.627815 2.91219116,108.833495 C2.96792489,111.039175 3.31878495,113.231887 3.96477142,115.41163 L8.86836031,130.308667 C5.90569609,131.064965 3.92030641,131.064965 2.91219116,130.308667 C1.90407592,129.552369 1.36774188,127.660548 1.30318901,124.633202 L0.437732133,114.964143 L0,92.2607306 L0.437732133,91.8035368 Z" id="Path-16" fill="#856262" opacity="0.199172247"></path>
                    <path d="M10.3561492,86.2626966 C12.1112114,101.725144 13.3064751,113.061388 13.9419401,120.271427 C14.5774051,127.481467 16.5294343,134.409438 19.7980278,141.05534 C20.7935552,150.296712 21.6383558,157.030134 22.3324299,161.255606 C23.0265039,165.481078 23.3381211,172.52114 23.2672816,182.37579 C27.4234859,200.432278 28.7438159,210.346266 27.2282714,212.117751 C25.0845805,214.623463 30.4636574,228.504769 40.0319857,235.946812 C49.9055817,243.626286 64.034887,244.806029 65.4755125,243.025051 C66.3656736,241.924587 83.0437756,210.223675 94.1703424,204.213023 C100.684779,200.693877 105.166788,195.673203 110.884108,193.674373 C115.585638,192.030673 123.630491,193.012428 123.630491,190.844611 C123.630491,187.320286 123.630491,181.17052 123.630491,179.791065 C123.630491,178.773083 123.630491,179.112955 121.553334,179.112955 C120.846518,179.112955 119.058005,178.265926 117.583275,177.950031 C115.450349,177.493146 111.906238,174.404336 109.717552,174.903253 C107.536432,175.400445 105.176999,176.236525 102.639254,177.411494 C101.392813,175.999225 100.540307,174.9586 100.081734,174.289617 C98.9999484,172.711467 98.3564723,170.994721 98.5243516,170.72468 C101.515537,165.91323 107.528868,161.255606 109.717552,158.566612 C110.261412,157.89843 111.848113,154.198647 113.282481,151.862241 C114.165441,150.424007 115.023502,148.339519 116.091318,146.046612 C116.952144,144.198173 118.013954,140.592198 119.276747,135.228685 L127.81776,102.656968 C127.150261,84.717938 126.094308,71.3320391 124.6499,62.4992714 C123.660406,56.4483749 137.805509,14.1106458 129.927769,12.9879315 C119.40155,11.4877632 80.8914836,1.33568843e-13 76.7555006,1.33568843e-13 C75.4321529,1.33568843e-13 59.6307514,8.11755011 48.7759814,5.45437026 C38.8025518,3.00742413 31.7598707,0.949719591 31.3762507,1.82253499 C29.8825812,5.22094308 26.2699414,25.7486472 20.9692454,43.1567712 C18.0987146,52.5839396 12.8403016,60.0392849 11.4696935,65.7731478 C10.851446,68.359552 11.114637,67.8403041 10.3561492,72.1549361 C9.85049067,75.0313575 9.85049067,79.7339446 10.3561492,86.2626966 Z" id="Path-5" fill="#D2B48C" opacity="0.379859561"></path>
                    <path d="M109.745959,92.0226912 L67.106736,87.4621642 L48.6740045,91.7179309 C48.6740045,91.7179309 35.7864247,95.0516837 32.147806,97.9340958 L40.6399208,99.4009385 L53.3130377,93.8337099 C57.0466473,94.2886865 63.5990137,95.3968979 82.0163014,93.9491274 L105.988986,95.3584927 L109.745959,92.0226912 Z" id="path5598" fill="#000000" opacity="0.6520004"></path>
                    <polygon id="path5626" fill="#D2B48C" opacity="0.50199998" points="74.2725175 71.1341157 124.476722 75.5233893 179.642487 68.1364108 190.669746 66.840644 141.158315 69.2668121 125.51072 71.8969587"></polygon>
                    <polygon id="Rectangle" fill="#D1B19F" opacity="0.367327009" points="123.704336 178.63099 133.025404 179.920385 133.025404 192.740451 123.704336 191.493452"></polygon>
                </g>
                <g id="Hair">
                    <path d="M21.1979919,151.413027 L23.5904372,170.298684 L26.4308198,183.55756 L21.9019509,206.765528 L15.3453694,165.543822 L17.4418931,155.774425 L19.3495965,152.787732 C19.4557693,151.866615 20.3392932,151.650959 21.1979919,151.413027 Z" id="path5608" fill="#696969" fill-rule="nonzero" opacity="0.01700003"></path>
                    <path d="M248.139826,214.680984 C249.987402,214.830729 251.834977,214.980474 253.682552,215.130219" id="Path-10" fill="#01030D" fill-rule="nonzero"></path>
                    <path d="M41.1570311,72.1829761 L48.6017203,101.960423 L44.8206526,124.610855 L33.7934621,145.763696 C31.5484654,153.177046 30.1069241,158.607495 29.4688383,162.055044 C28.8307525,165.502594 28.8307525,170.289987 29.4688383,176.417225 C31.710194,204.055697 32.6487713,217.455563 32.2845699,216.616824 C31.6409721,215.134647 26.5402305,210.988923 25.5855052,206.765528 C24.6327513,202.550854 22.4894946,188.340794 21.9966396,187.015181 C20.5691766,183.175792 20.1996616,177.820465 20.8880945,170.949204 L7.67198512,157.08689 C6.83322249,147.955965 6.00832119,142.507993 5.19728107,140.742975 C3.98072098,138.095448 -2.70177425,108.057408 1.21971775,98.7777787 C2.22014313,96.4104202 10.3552887,77.887246 19.001502,72.1829761 C22.7490468,69.7105633 30.1342232,69.7105633 41.1570311,72.1829761 Z" id="Combined-Shape" stroke="#543A2C" fill="#2B1E0D" fill-rule="nonzero"></path>
                    <path d="M231.284971,78.593219 C240.684661,82.9000701 246.302946,87.8911167 248.139826,93.5663585 C249.976707,99.2416008 250.346222,107.489501 249.248372,118.31006 L257.216223,100.426661 L269.202181,66.0097735 C258.567917,54.4433201 251.177616,48.9143606 247.031281,49.4228948 C244.283973,49.7598433 239.400628,53.1522896 235.685331,61.5803335 C234.424026,64.441569 232.957239,70.1125309 231.284971,78.593219 Z" id="Path-28" fill="#2B1F10" fill-rule="nonzero"></path>
                    <path d="M56.4276958,65.9508087 L88.7510114,57.6647282 L111.811667,62.8248985 C112.725323,58.7729268 113.062305,55.8279905 112.822611,53.9900897 C112.582918,52.1521889 111.527146,49.5856495 109.655296,46.2904721 C139.74504,37.2881069 153.814985,32.1712612 151.865132,30.9399361 C149.28496,29.3105674 122.498832,18.5745687 106.703946,19.0677084 C98.9454848,19.309939 85.3268926,24.2770891 65.8481701,33.9691585 L48.1475558,44.9244649 C36.2526873,60.8009301 29.7887638,70.067991 28.7557851,72.7256478 C27.7228066,75.3833045 34.1867298,75.5641949 48.1475558,73.2683194 L56.4276958,65.9508087 Z" id="Path-32" fill="#362510" fill-rule="nonzero"></path>
                    <path d="M70.8387814,83.3162992 L103.162097,75.0302187 L126.222752,80.1903893 C127.136409,76.1384174 127.47339,73.1934811 127.233697,71.35558 C126.994003,69.5176795 125.938231,66.9511401 124.066381,63.6559629 C119.841412,59.5581887 116.754001,56.8936389 114.804147,55.6623135 C110.322902,52.8324238 106.04007,52.1469042 103.641841,51.5355912 C91.2300306,48.3717989 83.0209744,53.2916312 80.9651232,53.3978003 C77.9245243,53.5548251 74.087112,55.6028801 69.4528866,59.5419653 C65.0862927,66.1034827 62.3865067,70.7130696 61.353528,73.3707264 C60.3205495,76.0283829 60.7222539,81.7827439 62.5586411,90.63381 L70.8387814,83.3162992 Z" id="Path-32" stroke="#979797" fill="#32220E" fill-rule="nonzero"></path>
                    <path d="M65.296056,63.7801226 L97.6193715,55.4940419 L120.680027,60.6542127 C121.593684,56.6022403 121.930665,53.6573042 121.690972,51.8194031 C121.451278,49.9815026 120.395506,47.4149635 118.523656,44.1197858 C114.298687,40.0220116 111.211276,37.357462 109.261422,36.1261364 C104.780177,33.2962472 100.497345,32.610727 98.0991163,31.9994143 C85.6873052,28.8356223 77.478249,33.7554541 75.422398,33.8616235 C72.3817992,34.0186482 68.5443864,36.0667033 63.9101614,40.0057887 C59.5435676,46.5673058 56.8437815,51.1768928 55.8108028,53.8345493 C54.7778241,56.492206 55.1795287,62.246567 57.0159159,71.0976331 L65.296056,63.7801226 Z" id="Path-32" fill="#32220E" fill-rule="nonzero"></path>
                    <path d="M85.3125575,-28.4208309 C78.8701506,-2.2521579 77.9604997,15.7505327 82.5836037,25.5872409 C87.2067074,35.4239489 102.066223,57.1763087 127.162151,90.8443204 C130.200325,28.2182121 126.962989,-3.30249461 117.450143,-3.71779985 C107.937297,-4.13310514 97.2247685,-12.3674489 85.3125575,-28.4208309 Z" id="Path-27" stroke="#543A2C" fill="#2B1F10" fill-rule="nonzero" transform="translate(103.975827, 31.211745) rotate(97.000000) translate(-103.975827, -31.211745) "></path>
                    <path d="M41.0801244,106.670338 C33.9436111,114.385807 31.8693023,119.855927 34.8571983,123.080699 C37.8450943,126.305471 51.5136643,128.595166 75.8629085,129.949784 C69.8427999,119.066402 63.7423729,113.56059 57.5616291,113.432346 C51.3808848,113.304102 45.8870499,111.0501 41.0801244,106.670338 Z" id="Path-27" fill="#513729" fill-rule="nonzero" transform="translate(54.698717, 118.310061) rotate(90.000000) translate(-54.698717, -118.310061) "></path>
                    <path d="M170.979837,-2.72772849 C154.930957,12.1199914 145.181896,22.7367445 141.732653,29.122531 C132.759725,45.7346434 143.005622,83.1912947 146.550151,90.8844691 C150.268277,98.9544226 162.830774,104.115881 182.633635,101.990911 C189.274165,101.278341 201.002399,98.1901371 217.818336,92.7263007 C216.893027,79.3442575 215.546154,69.9649842 213.777715,64.5884811 C203.418883,33.0949915 189.603947,18.0411243 180.393536,17.6604768 C168.824551,17.1823543 165.686652,10.3862859 170.979837,-2.72772849 Z" id="Path-27" stroke="#3F2C21" fill="#32220E" fill-rule="nonzero" transform="translate(177.980641, 49.871260) rotate(89.000000) translate(-177.980641, -49.871260) "></path>
                    <path d="M49.2140019,43.1219128 C20.6016395,65.7243367 8.42296489,81.439247 12.6779783,90.2666439 C14.3594428,93.754989 24.451181,120.541779 30.8561779,123.243893 C35.9728367,125.402489 55.8304775,135.504222 83.6554899,132.33715 C88.799026,131.751708 97.4522141,123.331577 109.615053,107.076759 C92.3159232,82.0706254 79.9804716,66.9348543 72.6086984,61.6694465 C65.2369252,56.4040387 57.4386931,50.2215278 49.2140019,43.1219128 Z" id="Path-27" fill="#32220E" fill-rule="nonzero" transform="translate(60.733375, 88.034252) rotate(97.000000) translate(-60.733375, -88.034252) "></path>
                    <path d="M69.5854428,63.7541529 C39.3398818,59.8383616 49.5482442,102.262976 35.2991802,118.544588" id="Path-25" stroke="#50352D"></path>
                    <path d="M217.125724,48.9533177 C222.257105,52.8726066 225.266293,56.099565 226.153286,58.6341929 C229.125096,67.1262937 231.272377,74.3749955 232.853178,78.0493699 C235.153146,83.3953578 243.688533,86.8988795 258.459338,88.559935 C253.748974,70.5498174 249.071859,61.4144265 244.427991,61.1537625 C239.784124,60.8930982 230.683368,56.8262835 217.125724,48.9533177 Z" id="Path-27" fill="#23190C" fill-rule="nonzero" transform="translate(237.792531, 68.756626) rotate(133.000000) translate(-237.792531, -68.756626) "></path>
                    <path d="M72.9053571,9.50232784 C70.0305148,12.9416509 67.790533,16.1998662 66.1854123,19.2769737 C61.2183221,28.7991686 53.1618285,38.6711592 52.0687321,41.755098 C44.7790343,62.3214238 50.9296736,80.821787 53.9746796,87.2897113 C58.893612,97.7380608 81.3372177,105.184923 121.305496,109.6303 C111.373989,74.3777667 101.336025,56.5363446 91.191605,56.1060328 C81.0471853,55.6757209 74.9517694,40.1411526 72.9053571,9.50232784 Z" id="Path-27" fill="#32220E" fill-rule="nonzero" transform="translate(84.974571, 59.566314) scale(-1, 1) rotate(94.000000) translate(-84.974571, -59.566314) "></path>
                    <path d="M176.755868,25.1491073 C174.026982,46.0347212 174.798789,62.9303973 179.071287,75.8361337 C183.343785,88.7418706 202.676771,97.9761677 237.070244,103.539025 C228.387202,60.0079758 219.682343,37.9672484 210.955671,37.4168421 C202.228999,36.866436 190.829064,32.777191 176.755868,25.1491073 Z" id="Path-27" fill="#32220E" fill-rule="nonzero" transform="translate(206.115341, 64.344066) rotate(102.000000) translate(-206.115341, -64.344066) "></path>
                    <path d="M189.38694,41.6519905 C200.957408,31.3025787 205.961711,34.4754747 222.643291,35.3092176" id="Path-26" stroke="#50352D"></path>
                    <path d="M98.2507984,86.1694317 C76.8978411,89.6718613 85.0359328,110.249598 63.0993812,116.283933 L38.54356,124.281676 L31.2419051,127.894801" id="Path-30" stroke="#50352D"></path>
                    <path d="M135.068233,89.9629123 C142.552703,89.8895771 148.331313,88.2151152 153.514311,86.3672889 C157.405042,84.9801777 164.755899,84.8351385 169.228496,83.8504151" id="Path-33" stroke="#2C201A"></path>
                    <path d="M163.2,84.6294471 C196.527888,84.2872731 192.179896,86.0301123 209.983691,83.0164208 C214.420226,82.2654373 218.950975,79.6049421 227.276279,78.4243699 C229.826414,78.0627479 233.842656,78.8420003 236.875054,78.4243699" id="Path-23" stroke="#2C201A"></path>
                    <path d="M41.6,140.447869 C51.4803767,132.707082 58.2940234,130.766307 60.8,118.516702" id="Path-40" stroke="#7D564B"></path>
                    <path d="M28.1472739,91.000191 C31.7482428,86.4245826 46.1880112,65.7691084 55.4321628,63.9996538 C66.1391266,61.9501972 91.3134674,64.6251673 100.660139,64.2163192" id="Path-35" stroke="#50352D" transform="translate(64.403707, 77.109002) rotate(33.000000) translate(-64.403707, -77.109002) "></path>
                    <path d="M211.55784,43.8196441 C227.171461,53.9095327 248.492727,74.6045949 269.202181,67.3157205" id="Path-36" stroke="#50352D"></path>
                    <path d="M20.8880945,72.5662433 C20.8880945,64.6905129 23.9030023,60.0323946 28.3723021,54.4077796 C33.9355091,47.4064813 49.5444615,41.7670478 52.263746,38.719879 C59.3372197,30.7935033 64.632547,23.5685522 87.4007964,24.5109203" id="Path-34" stroke="#50352D"></path>
                    <path d="M133.842167,91.3422072 C164.411603,93.0459237 165.780221,55.1014684 187.904073,41.4648703 C205.956641,30.3377105 217.447753,54.4906075 233.846065,54.8459846 C237.359729,54.9221311 241.035897,53.9124793 243.998992,52.0620735 C247.018077,50.1767028 248.688677,46.7624857 251.03352,44.1126917" id="Path-37" stroke="#50352D"></path>
                    <path d="M133.842167,92.106797 C132.880143,80.9950888 127.161118,62.7315081 116.726884,50.4761129 C106.386602,38.3310683 56.7761532,55.7994894 49.4919532,46.9578553" id="Path-39" stroke="#50352D"></path>
                    <path d="M97.377702,85.9197303 C103.076174,85.2345021 106.034652,83.0958432 108.958664,83.0364077 C113.37104,82.9467185 120.183591,87.210022 136.076066,92.1096042" id="Path-29" stroke="#50352D"></path>
                    <path d="M82.9666167,23.4942517 C105.713749,22.6509848 111.365511,22.8082506 124.680637,40.7327387" id="Path-38" stroke="#50352D"></path>
                    <path d="M251.465462,113.632301 C254.077065,103.831089 256.746693,101.693465 257.931831,98.2559752 C260.59035,90.5449482 259.481336,90.8864269 268.733865,66.7562602" id="Path-42" stroke="#50352D" stroke-linecap="round"></path>
                </g>
                <g id="Beard" transform="translate(27.713626, 210.556574)" fill-rule="nonzero">
                    <path d="M193.317592,102.884097 C197.190519,105.340992 203.725452,110.577723 212.922391,118.59429 C213.782201,146.471795 213.797787,167.375959 212.969149,181.306784 C212.140512,195.237608 209.069602,211.910862 203.756421,231.326545 C191.10508,220.412896 183.463973,212.532841 180.833101,207.686379 C172.515507,192.364121 166.283252,184.365145 162.136336,183.68945 C161.429219,159.760425 161.883056,144.502807 163.497844,137.916596 C165.920027,128.037282 168.054434,105.750812 168.293622,100.017834 C168.793302,88.041242 170.920253,73.6195002 172.02505,70.4051289 C172.464351,69.1269988 175.659635,75.2120355 176.589253,76.7987677 C179.211712,81.2749551 187.51558,89.3561114 193.538279,96.5644293 C195.597057,99.0284949 191.837634,101.945246 193.317592,102.884097 Z" id="Path-11" fill="#73360D" transform="translate(187.696235, 150.778286) scale(-1, 1) rotate(-2.000000) translate(-187.696235, -150.778286) "></path>
                    <path d="M168.72089,98.0215855 C168.932616,132.736469 168.887968,158.728673 168.586947,175.998199 C168.314757,191.613662 171.228345,197.491106 170.860741,218.580412 C170.834948,220.060165 167.663081,226.573448 161.345139,238.120262 C146.683173,251.808336 131.398419,258.652372 115.490877,258.652372 C105.938687,258.652372 86.7342616,255.177146 75.1548704,248.120887 C70.0187981,244.991063 65.8852671,236.977972 62.7542773,224.081616 C60.9819872,156.487527 62.3201417,116.459901 66.7687411,103.998738 C68.8767792,98.0938214 89.3382711,110.549501 115.872152,110.243394 C126.192134,110.124338 143.80838,106.050401 168.72089,98.0215855 Z" id="Path-18" fill="#73360D"></path>
                    <path d="M1.76214598e-13,36.0670761 L4.84743189,73.5081464 L12.2258226,106.160177 C20.3208091,97.0124919 24.3277822,92.3243453 24.246742,92.0957375 C22.5115534,87.2009164 17.0928048,67.6855343 7.99049615,33.5495915 C7.56291154,21.8321738 7.03332806,14.4476999 6.4017456,11.39617 C3.68804521,-1.71524223 0.588835761,-1.27663807 0.611265663,1.7806462 C0.679775554,11.1188133 0.476020332,22.5476232 1.76214598e-13,36.0670761 Z" id="Path-8" fill="#73360D"></path>
                    <path d="M31.2882446,195.890508 C29.4877332,192.395348 27.2814745,188.24902 24.669469,183.451526 L25.0446801,191.055162 C22.3384532,189.20012 19.6410831,187.665849 16.9525697,186.452348 C12.0564682,172.801573 9.60986394,162.098465 9.61275693,154.343025 C9.62340206,125.806019 8.51453557,101.242575 6.2861574,80.6526931 C23.6599935,91.6320281 34.0603408,97.7526153 37.4871996,99.0144554 C41.8258611,100.61204 51.0068602,102.05582 65.0301965,103.345796 L63.8730363,233.689778 C53.1452927,219.523273 44.3372403,208.873337 37.4488798,201.73997 C35.39031,199.608181 33.3367653,197.65836 31.2882446,195.890508 Z" id="Combined-Shape" fill="#73360D" transform="translate(35.658177, 157.171235) rotate(1.000000) translate(-35.658177, -157.171235) "></path>
                    <polygon id="Path-14" fill="#73360D" points="32.066191 99.1069285 60.3492439 98.0215855 53.4653297 116.716873"></polygon>
                    <polygon id="Path-14" fill="#73360D" transform="translate(174.831105, 107.766331) rotate(7.000000) translate(-174.831105, -107.766331) " points="160.692182 97.2732928 188.970028 95.815052 182.026511 119.717611"></polygon>
                    <path d="M105.440698,58.9492315 C116.095225,58.9492315 122.718098,58.9492315 125.309319,58.9492315 C127.900539,58.9492315 140.963651,65.7703326 164.498652,79.4125338 C170.249536,87.3063165 173.682965,92.9722583 174.798941,96.4103592 C175.914917,99.8484602 177.560378,108.426203 179.735324,122.143589 L166.20014,112.795945 L155.941318,90.5092106 C137.460125,79.7223675 127.285225,74.2767399 125.416617,74.1723276 C119.83921,73.8606778 112.771832,73.8557399 104.214485,74.1575129 L104.103835,74.3111502 C100.509972,74.5532825 97.2678131,75.6553079 94.3773564,77.6172267 C88.7137066,81.4614706 82.139226,86.7049627 74.653914,93.3477037 L63.1054518,119.662075 C59.1034012,122.184806 56.147281,122.184806 54.2370916,119.662075 C52.3269022,117.139345 51.7299501,113.685854 52.4462349,109.301602 L65.0850251,81.4462624 C73.7828888,75.0221059 79.8563254,70.7791246 83.3053342,68.71732 C95.9264905,61.1724397 103.19142,58.9492315 105.099457,58.9492315 C105.21232,58.9492315 105.326016,58.9492315 105.440546,58.9506415 L105.440698,58.9492315 Z" id="Combined-Shape" fill="#6D330B"></path>
                </g>
                <g id="Glasses" transform="translate(135.396663, 204.179533) rotate(-2.000000) translate(-135.396663, -204.179533) translate(16.633777, 169.270442)" fill-rule="nonzero">
                    <path d="M72.3871691,68.3766194 C93.5905079,68.3766194 110.77921,54.2848034 110.77921,36.9016677 C110.77921,32.9799752 115.988269,23.3855936 114.389839,19.9229536 C108.903133,8.03723386 88.8069653,5.42671582 72.3871691,5.42671582 C59.1736296,5.42671582 38.8431194,7.47310116 31.9361349,15.8044828 C27.7597055,20.8421987 29.6735733,30.1038714 29.6735733,36.6541488 C29.6735733,54.0372847 51.1838308,68.3766194 72.3871691,68.3766194 Z" id="Oval" fill="#78D0F2" opacity="0.333449591"></path>
                    <path d="M182.366335,68.3766194 C203.678747,68.3766194 220.955871,53.5517983 220.955871,35.2644546 C220.955871,31.1387705 226.191726,21.045324 224.585074,17.40257 C219.070143,4.8985984 200.050959,3.25602948 183.546696,3.25602948 C170.265184,3.25602948 150.456557,5.9835559 143.514041,14.7483057 C139.316128,20.0480652 139.431728,28.1130623 139.431728,35.0040615 C139.431728,53.2914049 161.053923,68.3766194 182.366335,68.3766194 Z" id="Oval" fill="#B7E6F8" opacity="0.444568452"></path>
                    <path d="M186.432783,2.26828043 C192.260863,1.99591692 196.289095,2.25225905 206.231115,3.56601251 C213.619064,4.54331684 215.058942,4.799659 221.401265,6.3537332 C225.978023,7.47523002 228.943487,8.0840426 231.77182,8.51661995 C233.125992,8.70887652 234.137335,9.18951807 234.668719,9.84639478 C234.960123,10.2148866 235.011547,10.5192929 235.011547,11.4485331 C234.994406,12.0893885 234.994406,13.6755054 234.994406,15.0052802 C235.011547,19.427182 234.994406,19.6995455 234.771568,20.2122298 C234.617295,20.5647002 234.120194,20.9812562 233.125992,21.5900688 C229.354881,23.9131694 228.052134,26.5246549 224.640992,38.6368204 C222.652589,45.7182723 220.938447,50.0921098 218.950043,53.2643437 C213.893327,61.2750354 204.414125,66.8184338 192.603691,68.6608932 C178.342035,70.8878654 162.62336,67.5554175 153.127017,60.2977311 C151.327169,58.919892 148.498835,56.1161498 146.921826,54.1455197 C142.9793,49.2269552 140.18525,43.8918346 137.322634,35.8170575 C135.402796,30.4018295 134.305746,28.4472209 132.248776,26.7169115 C130.946029,25.6274574 130.886034,24.8965998 126.497832,24.864557 C122.983842,24.8325142 122.203908,25.4352008 121.329696,25.8036926 C120.112655,26.316377 119.392716,27.1494889 118.295665,29.2643113 C117.301464,31.1868773 116.821504,32.4846093 115.398767,37.1628534 C114.267433,40.7997075 113.61606,42.3217387 112.021908,45.0774169 C105.473889,56.3564707 98.6858889,62.8771737 89.8409198,66.4339205 C84.4927989,68.5807862 78.8189915,69.4299195 69.9568806,69.4619622 C66.7514365,69.4619622 64.0773761,69.3978766 62.8431941,69.2697054 C50.1242656,67.9239096 40.4393673,63.8865209 36.0340245,58.118823 C34.7484181,56.4205563 32.125782,51.1335 29.8973984,45.6862293 C27.9604187,40.9759426 26.4862572,36.6501691 24.6178431,30.3217227 C23.7779138,27.4218524 23.0922573,26.4285267 18.9097525,22.1828599 C17.8298435,21.0773845 16.8870658,19.9558877 16.647086,19.4592248 C15.8757224,17.9532148 15.652884,16.0787129 15.7728739,12.2015381 C15.8414396,10.3110149 15.9100052,8.7569407 15.9442881,8.72489793 C15.9614295,8.69285516 17.6412879,8.38844889 19.6639747,8.03597845 C21.6866614,7.69952939 26.3834086,6.8343747 30.1030952,6.11341245 C41.1421654,4.01461119 46.0960335,3.22956345 51.9583968,2.63677225 C55.369538,2.3003232 65.5686791,2.25225905 69.3569312,2.55666533 C75.150729,3.03730683 86.1555163,4.28697476 90.6979906,5.00793698 C93.1492122,5.3924502 94.4348184,5.63277095 101.839909,7.07469545 C112.930403,9.23758217 118.887043,9.73424508 126.600679,9.84639478 C136.594123,9.99058724 139.311038,9.30166771 157.89233,6.04932691 C172.668228,3.45386281 178.941985,2.62075087 186.432783,2.26828043 Z M77.5036952,6.713164 C73.687851,6.53734025 73.3969572,6.53734025 68.879545,6.72914797 C64.0370163,6.92095568 57.500458,7.49637883 52.3670351,8.16770586 C43.6231055,9.31855215 38.5923507,11.1087575 35.1700691,14.3055529 C33.3733711,15.9678864 32.4151322,17.5343161 31.8846783,19.6122331 C31.4568934,21.3225185 31.4568934,27.7480771 31.90179,30.6891287 C32.8258061,36.9868156 35.5465198,46.1456343 37.805226,50.5572117 C40.6970542,56.2315233 45.50536,60.371373 51.7510244,62.5611779 C56.9186703,64.3833515 67.151293,65.4702618 73.7562967,64.8948387 C84.2284789,64.0157197 92.5617353,60.515229 99.0127368,54.3294301 C102.041456,51.4043622 103.957934,48.7670063 106.490422,44.035749 C110.152264,37.1626393 112.05163,32.2875265 112.77031,27.9718527 C113.061203,26.1976315 112.975646,23.2565796 112.599196,21.7700699 C110.870943,15.0567997 103.273478,10.6931741 88.4721086,7.92794619 C84.7418215,7.22465125 81.969773,6.92095568 77.5036952,6.713164 Z M183.571014,6.71320056 C179.247951,6.53732735 178.991643,6.53732735 175.061586,6.72918906 C170.499302,6.93703928 167.167297,7.35273974 162.861321,8.24809454 C149.071946,11.1100322 142.219977,15.2030827 140.408733,21.6624281 C139.930291,23.3731953 139.964466,26.8586837 140.477082,29.2569553 C140.955524,31.4633656 142.356675,35.4764735 143.604041,38.2105034 C146.047511,43.5666435 149.089034,48.7788878 151.327457,51.4809403 C157.906031,59.3952375 167.338169,63.9359653 179.299212,64.9272511 C182.169863,65.1670784 187.9966,65.0391705 190.918512,64.6714355 C194.267604,64.2717236 198.69319,63.3923574 200.641132,62.7528179 C207.356404,60.5623963 212.585088,56.0376568 215.438651,49.8980812 C216.805628,47.004167 218.821918,40.9605218 219.778801,36.963402 C221.590045,29.4008517 221.965964,22.2380133 220.718598,18.7045595 C219.095313,14.1158662 214.874774,11.1899746 207.236793,9.35129957 C202.298591,8.16815213 192.490535,7.08093559 183.571014,6.71320056 Z" id="Combined-Shape" fill="#5E5566"></path>
                    <path d="M15.4907792,7.65337805 L21.4037976,17.6783592 C13.0005488,16.9576717 8.07406665,15.368398 6.62435116,12.9105382 C4.80658881,9.82868852 2.74961526,4.57065625 2.46509513,3.88910633 C1.88215209,2.49270319 6.22404679,3.74746044 15.4907792,7.65337805 Z" id="Rectangle" fill="#6D7278" transform="translate(11.908571, 10.507918) rotate(22.000000) translate(-11.908571, -10.507918) "></path>
                </g>
            </g>
        </g>
    </g>
</svg>